<?xml version="1.0" encoding="utf-8"?>
<!-- Generator: Adobe Illustrator 25.1.0, SVG Export Plug-In . SVG Version: 6.00 Build 0)  -->
<svg version="1.1" id="Laag_1" xmlns="http://www.w3.org/2000/svg" xmlns:xlink="http://www.w3.org/1999/xlink" x="0px" y="0px"
	 viewBox="0 0 228.88 205.82" style="enable-background:new 0 0 228.88 205.82;" xml:space="preserve">
<style type="text/css">
	.st0{fill:url(#SVGID_1_);}
	.st1{fill:#3C3C3B;}
</style>
<g>
	<g>
		<linearGradient id="SVGID_1_" gradientUnits="userSpaceOnUse" x1="32.2624" y1="81.3564" x2="196.6197" y2="81.3564">
			<stop  offset="0" style="stop-color:#2F2C7D"/>
			<stop  offset="0.9637" style="stop-color:#1D70B6"/>
		</linearGradient>
		<path class="st0" d="M147.77,136.89c-35.84,0-48.85-29.21-48.85-48.85V74.67c-0.16-6.55-2.68-17.81-17.81-17.81
			c-15.13,0-17.65,11.26-17.81,17.98l0,46.53H32.26v-46.7c0-19.64,13.01-48.85,48.85-48.85c35.84,0,48.85,29.21,48.85,48.85v13.37
			c0.16,6.55,2.68,17.81,17.81,17.81c15.13,0,17.65-11.26,17.81-17.98l0-46.53h31.04v46.7
			C196.62,107.68,183.61,136.89,147.77,136.89z"/>
	</g>
	<g>
		<path class="st1" d="M32.3,150.55h2.67c0,1.15,0,2.29-0.04,3.67c1.19-2.67,3.97-4.32,7.64-4.24c6.38,0.08,8.63,4.43,8.63,9.44
			v11.69h-2.79v-11.12c0-4.43-1.99-7.45-6.61-7.37c-4.24,0.04-6.69,2.59-6.69,6.88v11.61H32.3V150.55z"/>
		<path class="st1" d="M84.08,171.1h-2.67v-3.67c-1.15,2.67-3.93,4.28-7.6,4.24c-6.42-0.12-8.67-4.47-8.67-9.48v-11.65h2.79v11.12
			c0,4.43,1.99,7.41,6.61,7.37c4.28-0.04,6.72-2.6,6.72-6.88v-11.61h2.83V171.1z"/>
		<path class="st1" d="M107.97,155.71c0-2.18-1.45-3.4-3.51-3.4c-2.25,0-3.63,1.53-3.55,3.32c0.08,1.95,1.57,2.75,4.05,3.48
			c2.94,0.8,6.23,1.64,6.38,6.04c0.15,3.78-2.9,6.54-6.8,6.54c-3.32,0-6.99-2.1-7.03-6.42h2.79c0.11,2.83,2.22,4.09,4.28,4.09
			c2.37,0,4.01-1.76,3.97-3.86c-0.08-2.33-1.6-3.29-5.16-4.32c-2.94-0.88-5.23-2.06-5.31-5.31c0-3.7,2.94-5.88,6.42-5.88
			c2.86,0,6.07,1.57,6.26,5.73H107.97z"/>
		<path class="st1" d="M125.07,142.83h2.83v3.93h-2.83V142.83z M125.07,150.55h2.83v20.55h-2.83V150.55z"/>
		<path class="st1" d="M163.09,168.73c0,3.9-1.26,6.38-3.06,8.1c-2.02,1.99-5,3.17-7.79,3.17c-5.12,0-8.86-2.94-10.16-6.65h3.25
			c0.5,0.88,1.22,1.87,2.44,2.71c1.49,1.07,3.25,1.49,4.55,1.49c3.93,0,7.95-3.06,7.95-8.18v-2.64c-1.45,2.9-4.32,4.93-8.29,4.93
			c-6.42,0-10.74-4.89-10.74-10.81c0-6.15,4.47-10.89,10.74-10.89c4.05,0,7.18,2.29,8.33,4.82v-4.24h2.79V168.73z M144.06,160.83
			c0,4.16,2.94,8.21,8.25,8.21c2.33,0,4.32-0.88,5.77-2.37c1.41-1.49,2.25-3.55,2.29-5.81c0-1.72-0.57-3.74-1.87-5.39
			c-1.26-1.64-3.32-2.86-6.27-2.86c-4.51,0-8.17,3.36-8.17,8.17V160.83z"/>
		<path class="st1" d="M177.7,150.55h2.67c0,1.15,0,2.29-0.04,3.67c1.19-2.67,3.97-4.32,7.64-4.24c6.38,0.08,8.63,4.43,8.63,9.44
			v11.69h-2.79v-11.12c0-4.43-1.99-7.45-6.61-7.37c-4.24,0.04-6.69,2.59-6.69,6.88v11.61h-2.83V150.55z"/>
	</g>
</g>
</svg>
